<svg width="1023" height="589" viewBox="0 0 1023 589" fill="none" xmlns="http://www.w3.org/2000/svg">
<mask id="mask0_523_1564" style="mask-type:alpha" maskUnits="userSpaceOnUse" x="0" y="0" width="1024" height="589">
<rect width="1024" height="589" fill="#25086C"/>
</mask>
<g mask="url(#mask0_523_1564)">
<g opacity="0.5">
<path d="M838.347 -101.001C838.347 -101.001 660.651 13.872 732.33 267.212C783.761 448.987 826.751 531.81 782.438 645.522C738.126 759.234 703.806 810.665 724.78 858.585" stroke="#BFBFBF" stroke-miterlimit="10"/>
<path d="M875.401 640.181C875.401 640.181 772.157 520.332 859.024 354.576C917.659 242.693 810.153 87.362 839.201 -8.42321C862.238 -84.3748 953.744 -23.8178 953.744 -23.8178" stroke="#BFBFBF" stroke-miterlimit="10"/>
<path d="M993.28 610.906C993.28 610.906 921.895 520.643 942.561 356.708C963.227 192.772 854.569 133.757 881.307 57.593C908.046 -18.5708 1000.83 -13.5873 1000.83 -13.5873" stroke="#BFBFBF" stroke-miterlimit="10"/>
<path d="M1035.37 553.75C1035.37 553.75 955.673 545.984 958.584 437.212C961.495 328.44 1058.3 257.726 1058.3 257.726" stroke="#BFBFBF" stroke-miterlimit="10"/>
<path d="M1119.48 207.23C1119.48 207.23 1046.65 252.511 1011.81 154.843C976.969 57.1751 1037.89 -68.3949 1037.89 -68.3949" stroke="#BFBFBF" stroke-miterlimit="10"/>
</g>
</g>
</svg>
