<svg width="1024" height="574" viewBox="0 0 1024 574" fill="none" xmlns="http://www.w3.org/2000/svg">
<mask id="mask0_544_242" style="mask-type:alpha" maskUnits="userSpaceOnUse" x="0" y="0" width="1024" height="574">
<rect width="1024" height="574" transform="matrix(1 0 0 -1 0 574)" fill="#32AA9D"/>
</mask>
<g mask="url(#mask0_544_242)">
<g opacity="0.5">
<path d="M77.6376 130.819C77.6376 130.819 257.122 83.3595 311.346 282.729C350.252 425.78 353.567 503.785 434.269 543.108C514.971 582.432 561.993 590.853 566.785 633.429" stroke="#BFBFBF" stroke-miterlimit="10"/>
<path d="M354.782 633.408C354.782 633.408 402.158 501.052 277.124 431.887C192.726 385.203 232.303 226.706 177.599 176.249C134.218 136.243 77.6385 222.628 77.6385 222.628" stroke="#BFBFBF" stroke-miterlimit="10"/>
<path d="M317.696 669.204C317.696 669.204 316.256 566.812 219.865 499.686C123.474 432.56 161.202 316.608 105.728 298.97C50.2545 281.332 -5.09256 357.226 -5.09256 357.226" stroke="#BFBFBF" stroke-miterlimit="10"/>
<path d="M249.893 632.592C249.893 632.592 257.14 548.511 183.622 537.663C110.103 526.815 47.4638 618.727 47.4638 618.727" stroke="#BFBFBF" stroke-miterlimit="10"/>
</g>
</g>
</svg>
