<svg width="768" height="550" viewBox="0 0 768 550" fill="none" xmlns="http://www.w3.org/2000/svg">
<mask id="mask0_572_1221" style="mask-type:alpha" maskUnits="userSpaceOnUse" x="0" y="0" width="768" height="550">
<rect y="0.256104" width="768" height="549" fill="#25086C"/>
</mask>
<g mask="url(#mask0_572_1221)">
<g opacity="0.5">
<path d="M612.402 -118.882C612.402 -118.882 434.937 -11.8101 506.523 224.325C557.887 393.756 600.821 470.953 556.566 576.943C512.311 682.933 478.036 730.871 498.983 775.537" stroke="#BFBFBF" stroke-miterlimit="10"/>
<path d="M649.407 571.965C649.407 571.965 546.298 460.255 633.052 305.756C691.611 201.471 584.244 56.689 613.254 -32.5912C636.262 -103.385 727.649 -46.9403 727.649 -46.9403" stroke="#BFBFBF" stroke-miterlimit="10"/>
<path d="M767.134 544.678C767.134 544.678 695.842 460.545 716.481 307.743C737.12 154.94 628.602 99.933 655.306 28.9416C682.01 -42.0498 774.676 -37.4047 774.676 -37.4047" stroke="#BFBFBF" stroke-miterlimit="10"/>
<path d="M809.165 491.404C809.165 491.404 729.576 484.166 732.483 382.78C735.389 281.395 832.073 215.483 832.073 215.483" stroke="#BFBFBF" stroke-miterlimit="10"/>
<path d="M893.168 168.417C893.168 168.417 820.43 210.623 785.637 119.587C750.843 28.5521 811.681 -88.4902 811.681 -88.4902" stroke="#BFBFBF" stroke-miterlimit="10"/>
</g>
</g>
</svg>
