<svg width="767" height="565" viewBox="0 0 767 565" fill="none" xmlns="http://www.w3.org/2000/svg">
<mask id="mask0_572_1266" style="mask-type:alpha" maskUnits="userSpaceOnUse" x="-1" y="0" width="768" height="565">
<rect x="-1" width="768" height="565" fill="#32AA9D"/>
</mask>
<g mask="url(#mask0_572_1266)">
<g opacity="0.5">
<path d="M608.278 -50.8245C608.278 -50.8245 575.187 166.139 714.2 231.686C813.943 278.716 868.333 282.723 895.751 380.277C923.17 477.831 929.042 534.672 958.728 540.465" stroke="#BFBFBF" stroke-miterlimit="10"/>
<path d="M958.714 284.191C958.714 284.191 866.428 341.46 818.201 190.317C785.65 88.2958 675.137 136.137 639.955 70.0095C612.06 17.5699 672.293 -50.8239 672.293 -50.8239" stroke="#BFBFBF" stroke-miterlimit="10"/>
<path d="M983.673 239.362C983.673 239.362 912.279 237.621 865.475 121.102C818.67 4.58309 737.822 50.1899 725.524 -16.8679C713.225 -83.9257 766.143 -150.83 766.143 -150.83" stroke="#BFBFBF" stroke-miterlimit="10"/>
</g>
<g opacity="0.5">
<path d="M-86.3898 443.626C-86.3898 443.626 41.0775 489.754 79.5865 295.977C107.217 156.94 109.572 81.1236 166.885 42.9033C224.198 4.68307 257.593 -3.50199 260.996 -44.8833" stroke="#BFBFBF" stroke-miterlimit="10"/>
<path d="M110.434 -44.8641C110.434 -44.8641 144.08 83.7788 55.2826 151.004C-4.65548 196.378 23.4512 350.429 -15.3988 399.47C-46.2074 438.354 -86.3892 354.392 -86.3892 354.392" stroke="#BFBFBF" stroke-miterlimit="10"/>
<path d="M84.0967 -79.6549C84.0967 -79.6549 83.0738 19.8644 14.6182 85.1074C-53.8374 150.35 -27.0431 263.049 -66.44 280.192C-105.837 297.335 -145.144 223.57 -145.144 223.57" stroke="#BFBFBF" stroke-miterlimit="10"/>
<path d="M35.9444 -44.0706C35.9444 -44.0706 41.0909 37.6516 -11.1209 48.1951C-63.3327 58.7386 -107.818 -30.5939 -107.818 -30.5939" stroke="#BFBFBF" stroke-miterlimit="10"/>
</g>
</g>
</svg>
