<svg width="1024" height="574" viewBox="0 0 1024 574" fill="none" xmlns="http://www.w3.org/2000/svg">
<mask id="mask0_544_242" style="mask-type:alpha" maskUnits="userSpaceOnUse" x="0" y="0" width="1024" height="574">
<rect width="1024" height="574" transform="matrix(1 0 0 -1 0 574)" fill="#32AA9D"/>
</mask>
<g mask="url(#mask0_544_242)">
<g opacity="0.5">
<path d="M-31.2696 130.819C-31.2696 130.819 148.215 83.3595 202.439 282.729C241.345 425.78 244.66 503.785 325.362 543.108C406.064 582.432 453.086 590.853 457.878 633.429" stroke="#BFBFBF" stroke-miterlimit="10"/>
<path d="M245.875 633.408C245.875 633.408 293.25 501.052 168.217 431.887C83.8189 385.203 123.395 226.706 68.6914 176.249C25.3105 136.243 -31.2687 222.628 -31.2687 222.628" stroke="#BFBFBF" stroke-miterlimit="10"/>
<path d="M208.789 669.204C208.789 669.204 207.349 566.812 110.958 499.686C14.5667 432.56 52.2952 316.608 -3.17879 298.97C-58.6528 281.332 -114 357.226 -114 357.226" stroke="#BFBFBF" stroke-miterlimit="10"/>
<path d="M140.986 632.592C140.986 632.592 148.233 548.511 74.7143 537.663C1.19588 526.815 -61.4434 618.727 -61.4434 618.727" stroke="#BFBFBF" stroke-miterlimit="10"/>
</g>
</g>
</svg>
