<svg width="767" height="853" viewBox="0 0 767 853" fill="none" xmlns="http://www.w3.org/2000/svg">
<mask id="mask0_572_1133" style="mask-type:alpha" maskUnits="userSpaceOnUse" x="-1" y="0" width="768" height="853">
<rect width="768" height="853" transform="matrix(1 0 0 -1 -1 853)" fill="#32AA9D"/>
</mask>
<g mask="url(#mask0_572_1133)">
<g opacity="0.5">
<path d="M436.304 -2.86629C436.304 -2.86629 460.529 180.385 281.793 217.84C153.547 244.714 85.3204 241.489 43.3996 318.802C1.47881 396.114 -10.331 442.376 -47.854 443.595" stroke="#BFBFBF" stroke-miterlimit="10"/>
<path d="M-27.646 231.841C-27.646 231.841 83.0718 290.252 155.195 171.16C203.876 90.7728 338.095 143.584 387.233 93.1718C426.194 53.1938 356.375 -10.5578 356.375 -10.5578" stroke="#BFBFBF" stroke-miterlimit="10"/>
<path d="M-55.2783 191.799C-55.2783 191.799 34.0016 198.941 101.622 108.287C169.242 17.633 266.597 65.0333 287.235 11.102C307.874 -42.8292 247.071 -104.471 247.071 -104.471" stroke="#BFBFBF" stroke-miterlimit="10"/>
<path d="M-16.9464 127.143C-16.9464 127.143 55.5647 141.427 72.0104 68.9034C88.4562 -3.62022 14.4035 -73.8878 14.4035 -73.8878" stroke="#BFBFBF" stroke-miterlimit="10"/>
</g>
<g opacity="0.5">
<path d="M313.841 878.18C313.841 878.18 267.306 682.029 462.793 622.77C603.057 580.251 679.542 576.628 718.1 488.433C756.657 400.237 764.915 348.848 806.661 343.611" stroke="#BFBFBF" stroke-miterlimit="10"/>
<path d="M806.641 575.301C806.641 575.301 676.863 523.526 609.045 660.17C563.27 752.405 407.861 709.153 358.387 768.937C319.159 816.346 403.862 878.179 403.862 878.179" stroke="#BFBFBF" stroke-miterlimit="10"/>
<path d="M841.74 615.83C841.74 615.83 741.342 617.404 675.523 722.746C609.705 828.087 496.012 786.855 478.717 847.48C461.423 908.106 535.839 968.592 535.839 968.592" stroke="#BFBFBF" stroke-miterlimit="10"/>
<path d="M805.841 689.928C805.841 689.928 723.398 682.009 712.761 762.354C702.125 842.699 792.245 911.155 792.245 911.155" stroke="#BFBFBF" stroke-miterlimit="10"/>
</g>
</g>
</svg>
