<svg width="319" height="865" viewBox="0 0 319 865" fill="none" xmlns="http://www.w3.org/2000/svg">
<mask id="mask0_606_410" style="mask-type:alpha" maskUnits="userSpaceOnUse" x="0" y="0" width="320" height="865">
<g style="mix-blend-mode:hard-light">
<rect x="320" y="865" width="320" height="865" transform="rotate(-180 320 865)" fill="#212121"/>
</g>
</mask>
<g mask="url(#mask0_606_410)">
<g opacity="0.5">
<path d="M355.354 316C355.354 316 326.199 373.481 254.172 363.263C173.412 351.802 138.699 418.195 158.708 463.543C178.718 508.892 267.58 518.47 255.163 591.924C242.746 665.379 350.781 698.588 350.781 698.588" stroke="#BFBFBF" stroke-miterlimit="10"/>
<path d="M377.064 382.425C377.064 382.425 315.5 407.337 254.251 398.393C193.003 389.449 185.834 429.649 192.997 445.662C207.855 478.871 287.314 485.261 292.46 538.913C296.328 579.248 267.62 638.681 350.706 669.413" stroke="#BFBFBF" stroke-miterlimit="10"/>
<path d="M349.635 409.251C349.635 409.251 286.713 400.288 297.944 439.912C310.819 485.331 341.063 484.62 312.481 542.107C302.316 562.55 299.33 644.936 355.353 628.335" stroke="#BFBFBF" stroke-miterlimit="10"/>
<path d="M243.026 455.239C227.399 455.239 214.731 447.517 214.731 437.991C214.731 428.465 227.399 420.743 243.026 420.743C258.653 420.743 271.321 428.465 271.321 437.991C271.321 447.517 258.653 455.239 243.026 455.239Z" stroke="#BFBFBF" stroke-miterlimit="10"/>
</g>
<g opacity="0.5">
<path d="M1.29199 976.313C1.29199 976.313 9.96829 915.851 75.1076 898.925C148.145 879.949 159.063 809.741 128.763 777.456C98.462 745.172 18.9671 768.689 8.6019 700.327C-1.7633 631.966 -104.601 641.794 -104.601 641.794" stroke="#BFBFBF" stroke-miterlimit="10"/>
<path d="M-36.5293 926.3C-36.5293 926.3 9.48772 882.559 64.9527 868.388C120.418 854.216 115.067 816.67 104.284 805.305C81.917 781.736 11.4583 804.657 -8.38935 759.82C-23.3101 726.112 -15.5804 664.111 -96.1602 667.152" stroke="#BFBFBF" stroke-miterlimit="10"/>
<path d="M-20.5422 893.128C-20.5422 893.128 36.3733 878.374 15.2974 847.923C-8.86222 813.02 -34.7777 824.479 -26.5981 764.216C-23.6883 742.786 -44.7634 670.034 -88.3808 704.559" stroke="#BFBFBF" stroke-miterlimit="10"/>
</g>
<ellipse cx="39.0634" cy="820.934" rx="2.71496" ry="3.06568" transform="rotate(-180 39.0634 820.934)" fill="#25086C"/>
<ellipse cx="31.2577" cy="820.934" rx="2.71496" ry="3.06568" transform="rotate(-180 31.2577 820.934)" fill="#25086C"/>
<ellipse cx="23.452" cy="820.934" rx="2.71496" ry="3.06568" transform="rotate(-180 23.452 820.934)" fill="#25086C"/>
<ellipse cx="276.396" cy="422.934" rx="2.71496" ry="3.06568" transform="rotate(-180 276.396 422.934)" fill="#25086C"/>
<ellipse cx="268.591" cy="422.934" rx="2.71496" ry="3.06568" transform="rotate(-180 268.591 422.934)" fill="#25086C"/>
<ellipse cx="260.785" cy="422.934" rx="2.71496" ry="3.06568" transform="rotate(-180 260.785 422.934)" fill="#25086C"/>
</g>
</svg>
