<svg width="1024" height="537" viewBox="0 0 1024 537" fill="none" xmlns="http://www.w3.org/2000/svg">
<mask id="mask0_523_1668" style="mask-type:alpha" maskUnits="userSpaceOnUse" x="0" y="0" width="1024" height="537">
<rect width="1024" height="537" fill="#32AA9D"/>
</mask>
<g mask="url(#mask0_523_1668)">
<g opacity="0.5">
<path d="M701.447 -0.890275C701.447 -0.890275 668.312 193.292 807.506 251.956C907.38 294.048 961.84 297.635 989.294 384.946C1016.75 472.256 1022.63 523.129 1052.35 528.313" stroke="#BFBFBF" stroke-miterlimit="10"/>
<path d="M1052.34 298.949C1052.34 298.949 959.932 350.204 911.643 214.931C879.05 123.622 768.392 166.44 733.165 107.256C705.234 60.3226 765.545 -0.889839 765.545 -0.889839" stroke="#BFBFBF" stroke-miterlimit="10"/>
<path d="M1077.33 258.827C1077.33 258.827 1005.84 257.269 958.978 152.984C912.112 48.6997 831.159 89.5178 818.844 29.501C806.53 -30.5157 859.517 -90.3951 859.517 -90.3951" stroke="#BFBFBF" stroke-miterlimit="10"/>
<path d="M1051.77 185.472C1051.77 185.472 993.066 193.312 985.492 113.773C977.919 34.2344 1042.09 -33.5344 1042.09 -33.5344" stroke="#BFBFBF" stroke-miterlimit="10"/>
</g>
<g opacity="0.5">
<path d="M-86.5023 420.316C-86.5023 420.316 41.1309 461.6 79.6902 288.17C107.357 163.731 109.714 95.8757 167.102 61.6686C224.49 27.4615 257.928 20.1359 261.336 -16.9004" stroke="#BFBFBF" stroke-miterlimit="10"/>
<path d="M110.579 -16.8833C110.579 -16.8833 144.268 98.2521 55.355 158.418C-4.66114 199.029 23.4821 336.904 -15.4185 380.796C-46.2672 415.597 -86.5012 340.451 -86.5012 340.451" stroke="#BFBFBF" stroke-miterlimit="10"/>
<path d="M84.2061 -48.0213C84.2061 -48.0213 83.1819 41.0486 14.6371 99.441C-53.9076 157.833 -27.0785 258.699 -66.5266 274.042C-105.975 289.385 -145.333 223.365 -145.333 223.365" stroke="#BFBFBF" stroke-miterlimit="10"/>
<path d="M35.9911 -16.1732C35.9911 -16.1732 41.1443 56.9682 -11.1355 66.4046C-63.4153 75.841 -107.959 -4.1116 -107.959 -4.1116" stroke="#BFBFBF" stroke-miterlimit="10"/>
</g>
</g>
</svg>
