<svg width="319" height="769" viewBox="0 0 319 769" fill="none" xmlns="http://www.w3.org/2000/svg">
<mask id="mask0_560_321" style="mask-type:alpha" maskUnits="userSpaceOnUse" x="0" y="0" width="320" height="769">
<g style="mix-blend-mode:hard-light">
<rect y="0.256104" width="320" height="768" fill="#212121"/>
</g>
</mask>
<g mask="url(#mask0_560_321)">
<g opacity="0.5">
<path d="M-35.3535 684.84C-35.3535 684.84 -6.19879 627.36 65.8284 637.578C146.588 649.038 181.301 582.645 161.292 537.297C141.282 491.949 52.42 482.371 64.8371 408.916C77.2542 335.461 -30.7808 302.252 -30.7808 302.252" stroke="#BFBFBF" stroke-miterlimit="10"/>
<path d="M-57.0645 618.415C-57.0645 618.415 4.49965 593.503 65.7486 602.447C126.997 611.392 134.166 571.191 127.003 555.179C112.145 521.969 32.6859 515.58 27.5402 461.928C23.6724 421.592 52.3802 362.159 -30.706 331.427" stroke="#BFBFBF" stroke-miterlimit="10"/>
<path d="M-29.6348 591.589C-29.6348 591.589 33.2873 600.553 22.0563 560.928C9.18083 515.51 -21.0626 516.22 7.51904 458.733C17.6842 438.29 20.6695 355.904 -35.3535 372.505" stroke="#BFBFBF" stroke-miterlimit="10"/>
<path d="M76.9738 545.602C92.6008 545.602 105.269 553.324 105.269 562.85C105.269 572.375 92.6008 580.098 76.9738 580.098C61.3468 580.098 48.6787 572.375 48.6787 562.85C48.6787 553.324 61.3468 545.602 76.9738 545.602Z" stroke="#BFBFBF" stroke-miterlimit="10"/>
</g>
<g opacity="0.5">
<path d="M318.708 -111.057C318.708 -111.057 310.032 -50.5945 244.892 -33.6686C171.855 -14.6933 160.937 55.5155 191.237 87.7999C221.538 120.084 301.033 96.5671 311.398 164.929C321.763 233.29 424.601 223.462 424.601 223.462" stroke="#BFBFBF" stroke-miterlimit="10"/>
<path d="M356.529 -61.0442C356.529 -61.0442 310.512 -17.3028 255.047 -3.1316C199.582 11.0396 204.933 48.5865 215.716 59.9512C238.083 83.5202 308.542 60.5992 328.389 105.436C343.31 139.144 335.58 201.146 416.16 198.104" stroke="#BFBFBF" stroke-miterlimit="10"/>
<path d="M340.542 -27.8718C340.542 -27.8718 283.627 -13.1175 304.703 17.3332C328.862 52.2358 354.778 40.7774 346.598 101.04C343.688 122.47 364.763 195.222 408.381 160.698" stroke="#BFBFBF" stroke-miterlimit="10"/>
</g>
<ellipse cx="280.937" cy="44.3218" rx="2.71496" ry="3.06568" fill="#25086C"/>
<ellipse cx="288.742" cy="44.3218" rx="2.71496" ry="3.06568" fill="#25086C"/>
<ellipse cx="296.548" cy="44.3218" rx="2.71496" ry="3.06568" fill="#25086C"/>
<ellipse cx="43.6036" cy="442.323" rx="2.71496" ry="3.06568" fill="#25086C"/>
<ellipse cx="51.4093" cy="442.323" rx="2.71496" ry="3.06568" fill="#25086C"/>
<ellipse cx="59.215" cy="442.323" rx="2.71496" ry="3.06568" fill="#25086C"/>
</g>
</svg>
