<svg width="320" height="843" viewBox="0 0 320 843" fill="none" xmlns="http://www.w3.org/2000/svg">
<mask id="mask0_607_442" style="mask-type:alpha" maskUnits="userSpaceOnUse" x="0" y="12" width="321" height="831">
<g style="mix-blend-mode:hard-light">
<rect y="12" width="321" height="831" fill="#222222"/>
</g>
</mask>
<g mask="url(#mask0_607_442)">
<g opacity="0.5">
<path d="M400.589 418.396C400.589 418.396 362.436 480.849 268.179 469.747C162.494 457.295 117.067 529.431 143.252 578.701C169.437 627.972 285.726 638.378 269.476 718.186C253.227 797.994 394.605 834.076 394.605 834.076" stroke="#BFBFBF" stroke-miterlimit="10"/>
<path d="M429 490.567C429 490.567 348.435 517.633 268.283 507.915C188.13 498.198 178.75 541.875 188.123 559.273C207.567 595.354 311.55 602.297 318.283 660.589C323.345 704.413 285.777 768.987 394.507 802.377" stroke="#BFBFBF" stroke-miterlimit="10"/>
<path d="M253.593 569.679C233.143 569.679 216.565 561.289 216.565 550.939C216.565 540.589 233.143 532.199 253.593 532.199C274.043 532.199 290.621 540.589 290.621 550.939C290.621 561.289 274.043 569.679 253.593 569.679Z" stroke="#BFBFBF" stroke-miterlimit="10"/>
</g>
<g opacity="0.5">
<path d="M-13.7598 271.783C-13.7598 271.783 128.122 302.705 170.986 172.807C201.742 79.6023 204.362 28.7788 268.157 3.15776C331.952 -22.4632 369.123 -27.9501 372.911 -55.6902" stroke="#BFBFBF" stroke-miterlimit="10"/>
<path d="M205.322 -55.677C205.322 -55.677 242.772 30.559 143.933 75.6233C77.2169 106.04 108.502 209.308 65.2586 242.183C30.966 268.249 -13.7599 211.965 -13.7599 211.965" stroke="#BFBFBF" stroke-miterlimit="10"/>
<path d="M176.007 -78.9997C176.007 -78.9997 174.868 -12.2867 98.6712 31.449C22.4742 75.1848 52.2985 150.733 8.44633 162.224C-35.4058 173.716 -79.1576 124.268 -79.1576 124.268" stroke="#BFBFBF" stroke-miterlimit="10"/>
</g>
</g>
</svg>
