<svg width="320" height="768" viewBox="0 0 320 768" fill="none" xmlns="http://www.w3.org/2000/svg">
<mask id="mask0_560_370" style="mask-type:alpha" maskUnits="userSpaceOnUse" x="0" y="0" width="320" height="768">
<g style="mix-blend-mode:hard-light">
<rect width="320" height="768" fill="#212121"/>
</g>
</mask>
<g mask="url(#mask0_560_370)">
<g opacity="0.5">
<path d="M-74.2285 773.366C-74.2285 773.366 -45.0738 708.446 26.9534 719.987C107.713 732.93 142.426 657.945 122.417 606.729C102.407 555.512 13.545 544.694 25.9621 461.733C38.3792 378.773 -69.6558 341.266 -69.6558 341.266" stroke="#BFBFBF" stroke-miterlimit="10"/>
<path d="M-95.9395 698.344C-95.9395 698.344 -34.3753 670.209 26.8736 680.31C88.1225 690.412 95.2908 645.009 88.1281 626.924C73.27 589.417 -6.18914 582.201 -11.3348 521.605C-15.2026 476.05 13.5052 408.926 -69.581 374.217" stroke="#BFBFBF" stroke-miterlimit="10"/>
<path d="M38.0988 616.108C53.7258 616.108 66.3941 624.83 66.3941 635.588C66.3941 646.347 53.7258 655.068 38.0988 655.068C22.4718 655.068 9.80371 646.347 9.80371 635.588C9.80371 624.83 22.4718 616.108 38.0988 616.108Z" stroke="#BFBFBF" stroke-miterlimit="10"/>
</g>
<g opacity="0.5">
<path d="M279.832 -125.53C279.832 -125.53 271.156 -57.2426 206.016 -38.1263C132.979 -16.6954 122.061 62.5993 152.361 99.0616C182.662 135.524 262.157 108.963 272.522 186.172C282.887 263.38 385.725 252.28 385.725 252.28" stroke="#BFBFBF" stroke-miterlimit="10"/>
<path d="M317.653 -69.0447C317.653 -69.0447 271.636 -19.6427 216.171 -3.63752C160.706 12.3677 166.057 54.7735 176.841 67.6089C199.207 94.228 269.666 68.3408 289.513 118.98C304.434 157.051 296.704 227.076 377.284 223.64" stroke="#BFBFBF" stroke-miterlimit="10"/>
<path d="M301.666 -31.5794C301.666 -31.5794 244.751 -14.9158 265.827 19.4756C289.986 58.8951 315.902 45.9538 307.722 114.015C304.812 138.219 325.887 220.386 369.505 181.393" stroke="#BFBFBF" stroke-miterlimit="10"/>
</g>
</g>
</svg>
