<svg width="32" height="32" viewBox="0 0 32 32" fill="none" xmlns="http://www.w3.org/2000/svg">
<circle cx="16" cy="16" r="16" fill="#212121"/>
<path d="M9.6805 21.9259C8.93261 21.9259 8.26103 21.8331 7.66577 21.6476C7.07051 21.4775 6.52104 21.261 6.01736 20.9982L6.04025 18.2382H6.2692L7.04762 19.6298C7.3834 20.2483 7.74972 20.7121 8.14656 21.0214C8.55866 21.3152 9.07761 21.462 9.70339 21.462C10.436 21.462 11.0236 21.2997 11.4663 20.975C11.9242 20.6348 12.1531 20.1864 12.1531 19.6298C12.1531 19.1195 11.9929 18.702 11.6723 18.3773C11.3518 18.0526 10.7565 17.7588 9.88655 17.496L8.92498 17.1945C7.99393 16.9161 7.2613 16.4832 6.72709 15.8956C6.19289 15.3081 5.92578 14.5891 5.92578 13.7386C5.92578 12.7181 6.32262 11.8522 7.1163 11.141C7.90998 10.4297 9.04708 10.0741 10.5276 10.0741C11.1229 10.0741 11.68 10.1436 12.1989 10.2828C12.7331 10.4065 13.2444 10.5998 13.7328 10.8626L13.5955 13.3675H13.3665L12.5652 11.9295C12.2752 11.4193 11.9852 11.0637 11.6952 10.8626C11.4205 10.6462 11.0008 10.5379 10.436 10.5379C9.91708 10.5379 9.42866 10.6848 8.97076 10.9786C8.51287 11.2724 8.28393 11.6899 8.28393 12.2311C8.28393 12.7568 8.47471 13.1743 8.85629 13.4835C9.25313 13.7927 9.83313 14.0788 10.5963 14.3417L11.6265 14.6432C12.7255 14.9833 13.5115 15.4549 13.9847 16.058C14.4578 16.6455 14.6944 17.3568 14.6944 18.1918C14.6944 19.3205 14.2518 20.2251 13.3665 20.9054C12.4965 21.5857 11.2679 21.9259 9.6805 21.9259Z" fill="white"/>
<path d="M18.8999 21.9259C18.0146 21.9259 17.2667 21.6708 16.6562 21.1605C16.0609 20.6503 15.7633 19.9158 15.7633 18.9572C15.7633 18.2304 16.1296 17.5656 16.8623 16.9625C17.5949 16.344 18.7472 15.8802 20.3193 15.5709C20.5635 15.5245 20.8383 15.4781 21.1435 15.4318C21.4488 15.3699 21.7693 15.3081 22.1051 15.2462V13.4139C22.1051 12.3625 21.9754 11.628 21.7159 11.2105C21.4717 10.7776 21.0825 10.5611 20.5483 10.5611C20.182 10.5611 19.892 10.6848 19.6783 10.9322C19.4646 11.1642 19.3272 11.5739 19.2662 12.1615L19.2204 12.4166C19.1899 13.0815 19.0296 13.5685 18.7396 13.8778C18.4496 14.187 18.0909 14.3417 17.6636 14.3417C17.2667 14.3417 16.9386 14.218 16.6791 13.9706C16.4196 13.7232 16.2899 13.3907 16.2899 12.9732C16.2899 12.3393 16.5036 11.8058 16.9309 11.3729C17.3736 10.94 17.9536 10.6152 18.6709 10.3988C19.3883 10.1823 20.1667 10.0741 21.0062 10.0741C22.3646 10.0741 23.4101 10.4142 24.1427 11.0946C24.8906 11.7595 25.2646 12.8495 25.2646 14.3649V19.4906C25.2646 20.1864 25.5851 20.5343 26.2261 20.5343H26.7298L26.9359 20.7199C26.6459 21.091 26.3254 21.377 25.9743 21.578C25.6385 21.779 25.1577 21.8795 24.5319 21.8795C23.8604 21.8795 23.3262 21.7249 22.9293 21.4157C22.5477 21.091 22.2959 20.6657 22.1738 20.14C21.7159 20.6348 21.2428 21.06 20.7543 21.4157C20.2812 21.7558 19.663 21.9259 18.8999 21.9259ZM20.2964 20.5111C20.6017 20.5111 20.8841 20.4415 21.1435 20.3024C21.4183 20.1478 21.7388 19.9158 22.1051 19.6066V15.7101C21.9525 15.741 21.7999 15.7719 21.6472 15.8028C21.4946 15.8338 21.3191 15.8647 21.1206 15.8956C20.4185 16.0812 19.8538 16.3981 19.4264 16.8466C19.0143 17.2795 18.8083 17.8671 18.8083 18.6093C18.8083 19.2432 18.9533 19.7225 19.2433 20.0472C19.5333 20.3565 19.8843 20.5111 20.2964 20.5111Z" fill="white"/>
</svg>
