<svg width="319" height="448" viewBox="0 0 319 448" fill="none" xmlns="http://www.w3.org/2000/svg">
<mask id="mask0_560_400" style="mask-type:alpha" maskUnits="userSpaceOnUse" x="0" y="0" width="320" height="448">
<rect width="320" height="448" fill="#212121"/>
</mask>
<g mask="url(#mask0_560_400)">
<g opacity="0.5">
<path d="M-114.879 -51C-114.879 -51 -59.6594 46.1326 76.7612 28.8655C229.722 9.49959 295.468 121.692 257.57 198.323C219.672 274.954 51.3655 291.139 74.8837 415.265C98.4019 539.391 -106.218 595.508 -106.218 595.508" fill="#212121"/>
<path d="M-114.879 -51C-114.879 -51 -59.6594 46.1326 76.7612 28.8655C229.722 9.49959 295.468 121.692 257.57 198.323C219.672 274.954 51.3655 291.139 74.8837 415.265C98.4019 539.391 -106.218 595.508 -106.218 595.508" stroke="#BFBFBF" stroke-miterlimit="10"/>
<path d="M-156 61.2471C-156 61.2471 -39.3966 103.344 76.6097 88.2296C192.616 73.1155 206.193 141.048 192.627 168.106C164.485 224.224 13.9884 235.021 4.24257 325.684C-3.08311 393.844 51.2899 494.276 -106.077 546.207" fill="#212121"/>
<path d="M-156 61.2471C-156 61.2471 -39.3966 103.344 76.6097 88.2296C192.616 73.1155 206.193 141.048 192.627 168.106C164.485 224.224 13.9884 235.021 4.24257 325.684C-3.08312 393.844 51.2899 494.276 -106.077 546.207" stroke="#BFBFBF" stroke-miterlimit="10"/>
<path d="M-63.9147 168.47C-63.9147 168.47 55.2607 153.323 33.989 220.282C9.60264 297.031 -47.679 295.83 6.45518 392.974C25.7082 427.519 31.3624 566.737 -74.7461 538.684" fill="#212121"/>
<path d="M-63.9147 168.47C-63.9147 168.47 55.2607 153.323 33.989 220.282C9.60264 297.031 -47.679 295.83 6.45518 392.974C25.7082 427.519 31.3624 566.737 -74.7461 538.684" stroke="#BFBFBF" stroke-miterlimit="10"/>
</g>
</g>
</svg>
